<?xml version="1.0" standalone="no"?>
<!DOCTYPE svg PUBLIC "-//W3C//DTD SVG 20010904//EN"
    "http://www.w3.org/TR/2001/REC-SVG-20010904/DTD/svg10.dtd">
<svg version="1.0" xmlns="http://www.w3.org/2000/svg"
     width="320.000000pt" height="320.000000pt" viewBox="0 0 320.000000 320.000000"
     preserveAspectRatio="xMidYMid meet">

    <g transform="translate(0.000000,320.000000) scale(0.100000,-0.100000)"
       fill="red" stroke="none">
        <path d="M1348 3010 c-348 -65 -649 -240 -853 -494 -123 -155 -181 -257 -239
-423 -65 -188 -81 -285 -81 -493 0 -209 13 -294 72 -465 96 -278 301 -545 550
-718 127 -88 330 -174 503 -212 116 -26 391 -31 520 -11 116 18 304 78 401
127 360 180 634 510 742 894 121 431 40 877 -226 1238 l-50 68 -1 92 -1 92
-95 5 -95 5 -97 67 c-173 120 -351 191 -569 228 -148 25 -345 25 -481 0z m444
-140 c108 -22 212 -52 289 -85 400 -172 693 -533 764 -945 20 -118 20 -347 0
-464 -94 -538 -545 -970 -1086 -1041 -141 -19 -197 -19 -336 0 -270 35 -509
153 -714 352 -190 184 -309 398 -366 655 -14 64 -18 125 -17 268 0 160 3 198
23 280 31 122 61 202 123 323 65 127 113 190 236 309 184 178 414 298 656 343
87 16 356 19 428 5z"/>
        <path d="M2043 2145 c-124 -27 -214 -89 -260 -179 -35 -68 -36 -172 -4 -239
46 -95 117 -135 349 -196 211 -56 232 -69 232 -143 0 -40 -23 -69 -70 -94 -28
-15 -58 -18 -145 -18 -116 0 -171 12 -267 60 -26 13 -50 24 -53 24 -3 0 -5
-45 -5 -100 0 -98 0 -100 28 -114 95 -49 380 -68 491 -33 165 52 261 175 248
318 -10 108 -74 184 -194 229 -32 12 -114 36 -183 54 -199 51 -241 81 -226
159 20 106 223 137 410 62 34 -14 66 -25 69 -25 4 0 7 45 7 100 l0 99 -54 16
c-126 37 -262 44 -373 20z"/>
        <path d="M695 1808 c-8 -375 -4 -682 8 -695 5 -4 54 -8 110 -8 l102 0 3 310
c1 170 6 313 10 317 8 8 106 -95 282 -298 115 -133 271 -306 285 -316 6 -4 40
-8 78 -8 l67 0 0 515 0 515 -110 0 -110 0 0 -310 c0 -247 -3 -310 -13 -310 -7
0 -78 73 -157 162 -80 89 -174 194 -210 233 -36 39 -94 106 -130 148 l-65 77
-71 0 -72 0 -7 -332z"/>
    </g>
</svg>
